Coordinates
version=1
nRows=13
nColumns=34
inDegrees=no

Units are S.I. units (second, meters, Newtons, ...)
If the header above contains a line with 'inDegrees', this indicates whether rotational values are in degrees (yes) or radians (no).

endheader
time	pelvis_tilt	pelvis_list	pelvis_rotation	pelvis_tx	pelvis_ty	pelvis_tz	hip_flexion_r	hip_adduction_r	hip_rotation_r	knee_angle_r	ankle_angle_r	subtalar_angle_r	mtp_angle_r	hip_flexion_l	hip_adduction_l	hip_rotation_l	knee_angle_l	ankle_angle_l	subtalar_angle_l	mtp_angle_l	lumbar_extension	lumbar_bending	lumbar_rotation	arm_flex_r	arm_add_r	arm_rot_r	elbow_flex_r	pro_sup_r	arm_flex_l	arm_add_l	arm_rot_l	elbow_flex_l	pro_sup_l
20.0188	0.263647	0.249983	3.30779	1.21535	0.679715	-0.541079	-0.0370671	-0.408951	-0.695094	0.555633	0.580361	0.240849	-0.130709	1.44254	-0.739762	-0.183406	1.48989	0.298755	0.0625944	-0.130709	0.114202	0.140003	0.144093	-0.0156383	-0.639342	0.375725	1.1928	2.09	1.61408	-0.19755	0.150906	0.768968	1.19159
20.0388	0.267305	0.251431	3.3057	1.21456	0.679756	-0.539851	-0.0401234	-0.40586	-0.697682	0.542091	0.575041	0.250077	-0.130709	1.4447	-0.740164	-0.18376	1.49086	0.301283	0.0623113	-0.130709	0.117941	0.141867	0.145157	-0.0225303	-0.63894	0.370257	1.1798	2.09	1.613	-0.201735	0.142774	0.767836	1.19218
20.0588	0.270845	0.252777	3.30344	1.2138	0.679824	-0.538698	-0.0429859	-0.402686	-0.698839	0.528712	0.569702	0.258711	-0.130709	1.44664	-0.740722	-0.184177	1.49168	0.303689	0.0620639	-0.130709	0.121598	0.143673	0.146178	-0.0290952	-0.638252	0.364739	1.16661	2.09	1.61201	-0.205949	0.134853	0.766617	1.19301
20.0788	0.274132	0.253995	3.30114	1.21306	0.679916	-0.537607	-0.0458782	-0.399502	-0.699126	0.515513	0.564349	0.266984	-0.130709	1.44824	-0.741426	-0.184695	1.49241	0.305986	0.0619012	-0.130709	0.125027	0.145418	0.147094	-0.0353515	-0.637331	0.359146	1.15337	2.09	1.61109	-0.210149	0.126964	0.765291	1.19422
20.0988	0.277024	0.255078	3.29888	1.21234	0.680029	-0.536567	-0.0490228	-0.396336	-0.698989	0.50247	0.558981	0.275115	-0.130709	1.44941	-0.742287	-0.185329	1.49312	0.308191	0.061878	-0.130709	0.128082	0.147122	0.147868	-0.0413124	-0.636254	0.353497	1.14023	2.09	1.61022	-0.214292	0.118929	0.763849	1.1959
20.1188	0.279439	0.256024	3.2967	1.21164	0.68016	-0.535571	-0.0525545	-0.393197	-0.698716	0.489551	0.553599	0.28325	-0.130709	1.4501	-0.743307	-0.186065	1.49386	0.31032	0.0620188	-0.130709	0.130671	0.148803	0.148493	-0.0469878	-0.635103	0.34784	1.1273	2.09	1.60938	-0.218346	0.110601	0.762306	1.19808
20.1388	0.281413	0.256828	3.29462	1.21095	0.680302	-0.534614	-0.0564438	-0.390117	-0.698458	0.476773	0.548223	0.291445	-0.130709	1.45037	-0.744438	-0.186885	1.49464	0.31239	0.0622761	-0.130709	0.132815	0.150457	0.148982	-0.0523837	-0.633948	0.342246	1.11466	2.09	1.6085	-0.222291	0.101887	0.760695	1.20081
20.1588	0.283106	0.25748	3.29261	1.21031	0.680443	-0.533696	-0.0604826	-0.387172	-0.698271	0.464217	0.542886	0.299687	-0.130709	1.45035	-0.745583	-0.18778	1.49544	0.314408	0.0625187	-0.130709	0.134657	0.152054	0.149365	-0.0575011	-0.632843	0.336801	1.10234	2.09	1.60754	-0.226118	0.092755	0.759061	1.20416
20.1788	0.284738	0.257985	3.29058	1.20971	0.680567	-0.53282	-0.0643702	-0.384439	-0.69816	0.452005	0.537624	0.307929	-0.130709	1.45025	-0.746641	-0.188725	1.49624	0.316377	0.0625767	-0.130709	0.136407	0.153569	0.149681	-0.0623387	-0.631827	0.331606	1.09031	2.09	1.60648	-0.229824	0.0832276	0.75745	1.20812
20.1988	0.286414	0.258428	3.28851	1.20918	0.680669	-0.531992	-0.0679525	-0.381835	-0.698108	0.440153	0.532434	0.316124	-0.130709	1.45025	-0.747603	-0.189589	1.49699	0.318298	0.0623705	-0.130709	0.138179	0.155072	0.149959	-0.0668968	-0.630912	0.326753	1.07856	2.09	1.6053	-0.233411	0.0733693	0.755895	1.2127
20.2188	0.288171	0.258923	3.28633	1.20869	0.680751	-0.531221	-0.0711487	-0.379225	-0.698093	0.428646	0.527296	0.324221	-0.130709	1.45051	-0.748532	-0.190219	1.49769	0.320162	0.0618954	-0.130709	0.140026	0.156668	0.150235	-0.071174	-0.630099	0.322312	1.06705	2.09	1.60401	-0.236883	0.0632843	0.754404	1.21779
20.2388	0.290029	0.25956	3.28401	1.20825	0.680816	-0.530517	-0.0738858	-0.376505	-0.698097	0.417499	0.522215	0.332154	-0.130709	1.45114	-0.749521	-0.190511	1.49833	0.321956	0.061189	-0.130709	0.141976	0.158437	0.150554	-0.075166	-0.629363	0.318307	1.05576	2.09	1.60264	-0.240259	0.0531446	0.752978	1.22308
20.2588	0.292011	0.26037	3.28148	1.20786	0.680867	-0.52989	-0.0760813	-0.373661	-0.698107	0.406787	0.517247	0.339804	-0.130709	1.4522	-0.750659	-0.190455	1.4989	0.323648	0.0603129	-0.130709	0.144038	0.160394	0.150964	-0.0788601	-0.628653	0.314705	1.04469	2.09	1.60124	-0.243584	0.04323	0.751634	1.22783
